PathFileType	4	(X/Y/Z)	C:/Users/opensim2020/Desktop/walking_exp_matlab/subject03_walking08_straight_04.trc																																																																																																																																																							
DataRate	CameraRate	NumFrames	NumMarkers	Units	OrigDataRate	OrigDataStartFrame	OrigNumFrames																																																																																																																																																			
100	100	5	51	mm	100	3389	303																																																																																																																																																			
Frame#	Time	LFHD			RFHD			LBHD			RBHD			C7			T10			CLAV			STRN			RBAK			LSHO			LUPA			LELB			LFRM			LWRA			LWRB			LFIN			RSHO			RUPA			RELB			RFRM			RWRA			RWRB			RFIN			LASI			RASI			LPSI			RPSI			LTHI			LKNE			LTIB			LANK			LHEE			LTOE			RTHI			RKNE			RTIB			RANK			RHEE			RTOE			*39			*40			*41			*42			*43			*44			*45			*46			*47			*48			*49			*50		
		X1	Y1	Z1	X2	Y2	Z2	X3	Y3	Z3	X4	Y4	Z4	X5	Y5	Z5	X6	Y6	Z6	X7	Y7	Z7	X8	Y8	Z8	X9	Y9	Z9	X10	Y10	Z10	X11	Y11	Z11	X12	Y12	Z12	X13	Y13	Z13	X14	Y14	Z14	X15	Y15	Z15	X16	Y16	Z16	X17	Y17	Z17	X18	Y18	Z18	X19	Y19	Z19	X20	Y20	Z20	X21	Y21	Z21	X22	Y22	Z22	X23	Y23	Z23	X24	Y24	Z24	X25	Y25	Z25	X26	Y26	Z26	X27	Y27	Z27	X28	Y28	Z28	X29	Y29	Z29	X30	Y30	Z30	X31	Y31	Z31	X32	Y32	Z32	X33	Y33	Z33	X34	Y34	Z34	X35	Y35	Z35	X36	Y36	Z36	X37	Y37	Z37	X38	Y38	Z38	X39	Y39	Z39	X40	Y40	Z40	X41	Y41	Z41	X42	Y42	Z42	X43	Y43	Z43	X44	Y44	Z44	X45	Y45	Z45	X46	Y46	Z46	X47	Y47	Z47	X48	Y48	Z48	X49	Y49	Z49	X50	Y50	Z50	X51	Y51	Z51
																																																																																																																																																										
38	0.37	-963.40808	1615.10535	-1521.38892	-986.5625	1623.31653	-1390.51685	-1094.89124	1587.18066	-1539.84509	-1112.3042	1594.03113	-1409.91687	-1150.55859	1426.91956	-1486.0874	-1192.06763	1112.83252	-1483.51538	-1033.66589	1345.53711	-1465.71533	-992.11304	1180.69849	-1463.50122	-1221.37439	1251.70374	-1394.55322	-1052.30872	1380.40503	-1625.44812	-1026.65051	1188.06128	-1698.93274	-997.97925	1068.67444	-1711.44116	-952.05878	946.91437	-1705.06226	-923.71887	832.06488	-1672.0448	-930.73706	837.14319	-1727.56946	-902.05121	758.60712	-1715.96533	-1101.32263	1372.88147	-1314.97083	-1106.07715	1150.48633	-1240.20142	-1088.61108	1039.72485	-1223.84985	-1067.66406	904.50665	-1217.28247	-1030.21094	809.68292	-1246.66309	-1066.65479	804.49005	-1206.43176	-1041.09595	734.27991	-1212.51172	-1017.91913	947.03912	-1583.60754	-1041.44019	942.64606	-1346.18054	-1183.54773	976.59918	-1547.94043	-1196.3772	975.93109	-1399.56042	-1077.50818	647.79254	-1623.07422	-1074.63989	470.29095	-1578.74194	-1124.4126	281.28851	-1577.80408	-1138.29712	71.91808	-1533.39685	-1176.39453	36.4522	-1495.67981	-984.04358	35.55103	-1508.07776	-1050.82935	650.62726	-1295.67639	-988.81384	480.45575	-1312.52356	-1100.50293	326.00931	-1314.31873	-1223.65295	150.4147	-1361.2998	-1274.44812	140.62321	-1417.60144	-1123.62988	51.68242	-1366.95142	NaN	NaN	NaN	NaN	NaN	NaN	NaN	NaN	NaN	NaN	NaN	NaN	NaN	NaN	NaN	NaN	NaN	NaN	NaN	NaN	NaN	NaN	NaN	NaN	NaN	NaN	NaN	NaN	NaN	NaN	NaN	NaN	NaN	NaN	NaN	NaN
39	0.38	-956.36255	1614.82715	-1521.56555	-979.63763	1623.09229	-1390.72009	-1087.93677	1587.29456	-1540.14636	-1105.64465	1594.25061	-1410.34851	-1143.91382	1426.87329	-1486.40076	-1185.43774	1112.82288	-1484.17737	-1027.198	1345.547	-1465.97205	-985.98102	1180.79016	-1463.87256	-1214.9552	1251.52454	-1395.30652	-1045.61975	1380.63452	-1625.6842	-1018.20026	1188.86047	-1699.42798	-987.86096	1069.95386	-1712.03784	-939.70209	949.03027	-1705.59094	-909.10547	834.73761	-1672.36316	-916.56744	839.55542	-1727.7699	-886.43182	761.49896	-1716.21692	-1095.20251	1372.828	-1315.36292	-1100.995	1150.49219	-1240.33264	-1084.49182	1039.67212	-1223.70056	-1063.75183	904.39661	-1217.12939	-1026.1134	809.6969	-1246.37256	-1062.92969	804.36212	-1206.45081	-1037.43176	733.97736	-1212.68066	-1011.65582	946.69617	-1584.12756	-1035.30847	942.83868	-1346.84668	-1177.27075	976.6095	-1548.17371	-1189.87915	975.97516	-1399.80798	-1072.91052	647.52954	-1623.13	-1071.50415	470.0997	-1578.82385	-1122.66736	281.39517	-1577.78687	-1138.12671	72.14106	-1533.30835	-1176.36157	36.70198	-1495.51331	-983.97162	35.49162	-1508.0885	-1041.53308	651.51178	-1296.24829	-977.97357	481.93265	-1313.9906	-1084.38196	323.34195	-1315.31958	-1201.06201	142.95938	-1361.75989	-1251.69519	130.98093	-1417.81238	-1096.4187	49.24356	-1367.98962	NaN	NaN	NaN	NaN	NaN	NaN	NaN	NaN	NaN	NaN	NaN	NaN	NaN	NaN	NaN	NaN	NaN	NaN	NaN	NaN	NaN	NaN	NaN	NaN	NaN	NaN	NaN	NaN	NaN	NaN	NaN	NaN	NaN	NaN	NaN	NaN
40	0.39	-949.46051	1614.58813	-1521.66589	-972.84979	1622.85645	-1390.88708	-1081.0531	1587.33325	-1540.42493	-1099.0094	1594.40332	-1410.73706	-1137.39636	1426.90002	-1486.75232	-1178.8623	1112.77979	-1484.79272	-1020.70898	1345.50403	-1466.22449	-979.46594	1180.69055	-1464.19421	-1208.58728	1251.30188	-1396.02112	-1038.94495	1380.78125	-1625.86865	-1009.82037	1189.50537	-1699.83508	-977.83649	1071.04358	-1712.58618	-927.54877	951.07458	-1706.10376	-894.60864	837.39526	-1672.56982	-902.68585	841.92328	-1727.91943	-871.24225	764.41174	-1716.3877	-1089.01404	1372.47729	-1315.67468	-1095.76831	1150.40454	-1240.53247	-1080.20007	1039.54907	-1223.61133	-1059.67993	904.18512	-1217.04822	-1021.85193	809.56036	-1246.1189	-1059.05518	804.08643	-1206.54578	-1033.55994	733.66992	-1212.77869	-1005.49438	946.41095	-1584.61328	-1027.88953	943.29663	-1347.26404	-1170.98206	976.49548	-1548.24341	-1183.46033	976.00757	-1399.99829	-1068.33655	647.2738	-1623.13794	-1068.29761	469.87152	-1578.85071	-1120.93152	281.53146	-1577.76843	-1137.94507	72.36608	-1533.22742	-1176.32434	37.06343	-1495.37317	-983.92035	35.47581	-1508.13843	-1032.31091	652.37494	-1296.84351	-967.52271	483.20972	-1315.39771	-1068.31226	320.55222	-1316.24744	-1177.94861	135.54974	-1362.33801	-1228.20435	121.11714	-1418.07922	-1068.91687	47.06583	-1368.94507	NaN	NaN	NaN	NaN	NaN	NaN	NaN	NaN	NaN	NaN	NaN	NaN	NaN	NaN	NaN	NaN	NaN	NaN	NaN	NaN	NaN	NaN	NaN	NaN	NaN	NaN	NaN	NaN	NaN	NaN	NaN	NaN	NaN	NaN	NaN	NaN
41	0.4	-942.60785	1614.34192	-1521.67468	-966.14954	1622.68591	-1390.94629	-1074.21924	1587.25012	-1540.59314	-1092.29956	1594.27441	-1410.8988	-1130.6731	1426.74036	-1487.01831	-1172.30957	1112.69812	-1485.28687	-1014.16864	1345.33276	-1466.33313	-972.87903	1180.63379	-1464.38672	-1202.2384	1251.04956	-1396.7489	-1032.22888	1380.84436	-1626.01013	-1001.52026	1190.04773	-1700.11755	-968.01355	1072.12219	-1713.13733	-915.63611	953.06189	-1706.61169	-880.33405	840.17957	-1672.70203	-889.01593	844.22247	-1727.95471	-856.13507	767.24451	-1716.28015	-1082.82776	1372.21692	-1315.93298	-1090.64697	1150.19128	-1240.5885	-1075.73035	1039.25012	-1223.57312	-1055.51953	903.87854	-1217.0249	-1017.53058	809.28046	-1246.02319	-1055.02441	803.72247	-1206.71008	-1029.62231	733.3573	-1213.00598	-999.29828	946.06006	-1585.02283	-1021.38599	943.52008	-1347.77051	-1164.79614	976.35443	-1548.31201	-1177.03796	975.9635	-1400.08057	-1063.71692	647.01886	-1623.09387	-1065.07861	469.67404	-1578.85938	-1119.22717	281.70901	-1577.66577	-1137.76648	72.61237	-1533.09082	-1176.64148	37.77698	-1495.47632	-983.83936	35.406	-1508.18127	-1022.88629	653.08026	-1297.26172	-957.46686	484.36789	-1316.7113	-1052.4917	317.74442	-1317.08105	-1154.40088	128.0587	-1362.92261	-1204.36499	111.49395	-1418.71045	-1041.35815	45.32418	-1369.66113	NaN	NaN	NaN	NaN	NaN	NaN	NaN	NaN	NaN	NaN	NaN	NaN	NaN	NaN	NaN	NaN	NaN	NaN	NaN	NaN	NaN	NaN	NaN	NaN	NaN	NaN	NaN	NaN	NaN	NaN	NaN	NaN	NaN	NaN	NaN	NaN
42	0.41	-935.82111	1614.10181	-1521.66418	-959.52661	1622.3927	-1390.88867	-1067.41443	1587.02832	-1540.70447	-1085.52954	1594.02661	-1410.99426	-1124.05383	1426.5647	-1487.26648	-1165.76758	1112.56262	-1485.71167	-1007.60297	1345.11145	-1466.53271	-966.46057	1180.35901	-1464.59656	-1195.96289	1250.88049	-1397.5116	-1025.53015	1380.76379	-1626.15063	-993.27509	1190.53284	-1700.448	-958.40594	1073.11377	-1713.63525	-903.94934	955.008	-1706.97852	-866.3374	843.03131	-1672.80054	-875.84991	846.59351	-1727.99597	-841.22565	770.10522	-1715.96899	-1076.65967	1371.85242	-1316.20325	-1085.32678	1149.84351	-1240.78723	-1071.02258	1038.86304	-1223.62805	-1051.12915	903.47467	-1217.03955	-1013.15094	808.83258	-1246.0011	-1050.89355	803.21863	-1207.02917	-1025.51697	732.82666	-1213.32849	-993.06757	945.68323	-1585.61243	-1014.96844	943.57629	-1348.17041	-1158.62976	976.16138	-1548.32532	-1170.64014	975.86108	-1400.12659	-1059.13293	646.79126	-1623.0105	-1061.94629	469.50055	-1578.85754	-1117.57532	281.89035	-1577.6322	-1137.54846	72.86416	-1532.96692	-1176.56555	38.18259	-1495.30139	-983.75262	35.38915	-1508.23242	-1014.25873	653.7019	-1297.56909	-947.91193	485.27768	-1317.8927	-1036.97632	315.01147	-1317.83899	-1130.69897	121.06007	-1363.5011	-1179.83716	101.90228	-1419.14624	-1013.69049	43.89301	-1370.09802	NaN	NaN	NaN	NaN	NaN	NaN	NaN	NaN	NaN	NaN	NaN	NaN	NaN	NaN	NaN	NaN	NaN	NaN	NaN	NaN	NaN	NaN	NaN	NaN	NaN	NaN	NaN	NaN	NaN	NaN	NaN	NaN	NaN	NaN	NaN	NaN
